<svg xmlns="http://www.w3.org/2000/svg" id="Layer_1" width="500" height="1024" viewBox="0 0 500 1024"><path d="M393.5 602.4c0 12.8-10.3 23.1-23.1 23.1H146c-12.8 0-23.1-10.3-23.1-23.1V470.9c0-12.8 10.4-23.1 23.1-23.1h224.4c12.8 0 23.1 10.3 23.1 23.1V602.4z" fill="#58AE94"/><rect x="252.4" y="204.8" width="10.4" height="56.3" fill="#E58052"/><path d="M246.8 195.9c0-6 4.9-10.8 10.8-10.8 6 0 10.8 4.9 10.8 10.8 0 6-4.8 10.8-10.8 10.8C251.6 206.7 246.8 201.9 246.8 195.9z" fill="#EBC34B"/><path d="M278.7 272c0 8.9-9.7 16.1-21.6 16.1 -11.9 0-21.5-7.2-21.5-16.1 0-8.9 9.7-16.1 21.6-16.1C269.1 255.9 278.7 263.1 278.7 272z" fill="#307E6C"/><path d="M106.1 529.4c0 5-4 9-9 9l0 0c-5 0-9-4-9-9V476.5c0-5 4-9 9-9l0 0c5 0 9 4 9 9V529.4z" fill="#EA8252"/><path d="M106.1 624.2c0 5-4 9-9 9l0 0c-5 0-9-4-9-9v-52.8c0-5 4-9 9-9l0 0c5 0 9 4 9 9V624.2z" fill="#EA8252"/><path d="M83.5 549.2c0-6.9 5.6-12.5 12.5-12.5s12.5 5.6 12.5 12.5 -5.6 12.5-12.5 12.5S83.5 556.1 83.5 549.2z" fill="#4B2C1E"/><path d="M77.7 636.2c0 0-0.3-28.4 16.9-28.4 17.3 0 21.7 13.5 21.7 31.5 0 0-1.7 6.4-6.1 6.4 -4.4 0 0.5-12-2.7-15.2 -3.2-3.2-6.5 3.7-6.5 12.2 0 8.4-9.8 7-16.6 7C77.7 649.6 77.7 646 77.7 636.2z" fill="#65B1A4"/><path d="M122.2 496.9c0 4.8-3.9 8.6-8.6 8.6l0 0c-4.8 0-8.6-3.9-8.6-8.6v-23.5c0-4.8 3.9-8.6 8.6-8.6l0 0c4.8 0 8.6 3.9 8.6 8.6V496.9z" fill="#E55347"/><rect x="142.3" y="269.6" width="225.4" height="165.2" fill="#58AE94"/><path d="M207.5 539.7c-0.2-0.3-5-6.4-1.3-13.9l0.5-1c4.1-8.4 13.6-28.2 47.5-28.5l0.7 0 0.1 0c33.9 0.3 43.4 20 47.5 28.5l0.5 1.1c3.7 7.5-1.3 13.8-1.3 13.9l-16.5 23.8 -30.6-0.1 -30.6 0.1L207.5 539.7z" fill="#5C3521"/><path d="M254.4 496.9l0.6 0c33.5 0.3 42.9 19.8 46.9 28.1 0.2 0.4 0.4 0.7 0.5 1.1 3.5 7.1-1 12.9-1.2 13.1l0 0 0 0 -16.3 23.4 -30.2-0.1 -30.2 0.1 -16.3-23.4 0 0 0 0c0-0.1-4.7-6-1.2-13.1 0.2-0.3 0.3-0.7 0.5-1 4-8.3 13.4-27.8 46.9-28.1L254.4 496.9M255 495.5c-0.1 0-0.3 0-0.4 0 -0.1 0-0.3 0-0.4 0v0c-35.9 0.3-44.8 22-48.6 29.9 -3.9 8 1.4 14.6 1.4 14.6l16.7 24 30.9-0.1 30.9 0.1 16.7-24c0 0 5.3-6.6 1.4-14.6 -3.9-7.9-12.8-29.6-48.6-29.9V495.5L255 495.5z" fill="#F1C15B"/><polyline points="245.8 558 238 528.1 262 558.2 " fill="#F1C15B"/><rect x="163.5" y="635.1" width="52" height="160.4" fill="#348072"/><path d="M340.8 340.4c0 12.8-10.4 23.1-23.1 23.1H191c-12.8 0-23.1-10.4-23.1-23.1v-8.2c0-12.8 10.3-23.1 23.1-23.1h126.7c12.8 0 23.1 10.4 23.1 23.1V340.4z" fill="#337F6E"/><path d="M227.4 706.4c0 9.9-8 18-18 18h-41.1c-9.9 0-18-8.1-18-18l0 0c0-9.9 8-18 18-18h41.1C219.4 688.4 227.4 696.5 227.4 706.4L227.4 706.4z" fill="#F1BF54"/><path d="M189.8 777.4c22.8 0 41.4 15.1 41.4 37.9h-82.7C148.4 792.5 167 777.4 189.8 777.4z" fill="#E55141"/><rect x="301.8" y="635.1" width="52" height="160.4" fill="#348072"/><path d="M365.7 706.4c0 9.9-8 18-18 18h-41.1c-9.9 0-18-8.1-18-18l0 0c0-9.9 8-18 18-18h41.1C357.7 688.4 365.7 696.5 365.7 706.4L365.7 706.4z" fill="#F1BF54"/><path d="M328.1 777.4c22.9 0 41.4 15.1 41.4 37.9h-82.7C286.7 792.5 305.2 777.4 328.1 777.4z" fill="#E55141"/><path d="M179.9 337.3c0-10.9 8.8-19.7 19.7-19.7 10.8 0 19.7 8.8 19.7 19.7 0 10.9-8.8 19.7-19.7 19.7C188.8 357 179.9 348.2 179.9 337.3z" fill="#F3C65A"/><path d="M185.3 337.6c0-8.2 6.6-14.9 14.9-14.9 8.2 0 14.9 6.7 14.9 14.9 0 8.2-6.7 14.9-14.9 14.9C192 352.4 185.3 345.8 185.3 337.6z" fill="#D24E45"/><path d="M194.6 337.1c0-3.2 2.6-5.8 5.8-5.8 3.2 0 5.8 2.6 5.8 5.8 0 3.2-2.6 5.8-5.8 5.8C197.2 342.9 194.6 340.3 194.6 337.1z" fill="#452720"/><path d="M201.8 336c0-2.2 1.7-3.9 3.9-3.9 2.2 0 3.9 1.7 3.9 3.9 0 2.2-1.7 3.9-3.9 3.9C203.6 339.9 201.8 338.2 201.8 336z" fill="#FFF"/><path d="M269.1 337.3c0-20.4 16.6-37 37-37 20.4 0 37 16.6 37 37 0 20.4-16.6 37-37 37C285.7 374.3 269.1 357.8 269.1 337.3z" fill="#F3C65A"/><path d="M279.2 337.8c0-15.4 12.5-28 28-28 15.4 0 28 12.5 28 28 0 15.4-12.5 28-28 28C291.7 365.7 279.2 353.2 279.2 337.8z" fill="#D24E45"/><path d="M296.7 336.9c0-6 4.9-10.9 10.9-10.9 6 0 10.9 4.9 10.9 10.9 0 6-4.9 10.9-10.9 10.9C301.6 347.9 296.7 343 296.7 336.9z" fill="#452720"/><path d="M310.3 334.8c0-4.1 3.3-7.4 7.4-7.4 4.1 0 7.3 3.3 7.3 7.4 0 4.1-3.3 7.3-7.3 7.3C313.6 342.2 310.3 338.9 310.3 334.8z" fill="#FFF"/><rect x="190.8" y="395.7" width="16.4" height="16.4" fill="#F3C65A"/><rect x="217.8" y="395.7" width="16.4" height="16.4" fill="#F3C65A"/><rect x="244.8" y="395.7" width="16.4" height="16.4" fill="#F3C65A"/><rect x="271.7" y="395.7" width="16.4" height="16.4" fill="#F3C65A"/><rect x="298.7" y="395.7" width="16.4" height="16.4" fill="#F3C65A"/><g><path d="M406.6 437.4c0-4.9 4-9 9-9l0 0c5 0 9 4 9 9v52.8c0 5-4 9-9 9l0 0c-5 0-9-4-9-9V437.4z" fill="#EA8252"/><path d="M406.6 342.6c0-5 4-9 9-9l0 0c5 0 9 4 9 9v52.8c0 5-4 9-9 9l0 0c-5 0-9-4-9-9V342.6z" fill="#EA8252"/><path d="M429.3 417.6c0 6.9-5.6 12.5-12.5 12.5 -6.9 0-12.5-5.6-12.5-12.5 0-6.9 5.6-12.5 12.5-12.5C423.7 405.1 429.3 410.7 429.3 417.6z" fill="#4B2C1E"/><path d="M435.1 330.6c0 0 0.3 28.4-16.9 28.4 -17.3 0-21.7-13.5-21.7-31.5 0 0 1.7-6.4 6.1-6.4 4.4 0-0.5 12 2.7 15.2 3.2 3.2 6.5-3.7 6.5-12.2 0-8.5 9.8-7 16.6-7C435.1 317.2 435.1 320.8 435.1 330.6z" fill="#65B1A4"/></g><path d="M390.6 469.9c0-4.8 3.9-8.6 8.6-8.6l0 0c4.8 0 8.6 3.9 8.6 8.6v23.5c0 4.8-3.9 8.6-8.6 8.6l0 0c-4.8 0-8.6-3.9-8.6-8.6V469.9z" fill="#E55347"/></svg>